<svg id="leaf1" xmlns="http://www.w3.org/2000/svg" viewBox="0 0 200 200">
  <title>leaf1</title>
  <path d="M123,68.92" transform="translate(0)"/>
  <path d="M189,122.36a7,7,0,0,1-.55-.67,7.13,7.13,0,0,0-2.84-1.32c-10.1-2-6.47,21-11.52,23.81-3.29,1.83-15.67,4.41-17.38-2.81-3.62-15.36,23.44-36.13,19.81-50.87-1.81-7.34-8.87-14.13-14.76-13.63-10.36.88-10.44,23.8-23.84,27.92-10.25,3.14-23.22-6.26-22.84-11.69.27-3.86,7.12-3.51,15.76-11.26,2.76-2.46,14.29-12.79,12.13-23.37-1.47-7.18-9.14-14-16.57-13.85-15,.28-22,28.68-30.52,26.4C91.58,69.86,88,61,89.86,54.57c3.25-11.37,22.3-11.11,26.07-25.1a18.42,18.42,0,0,0,.61-4.33c-.07-.57-.19-1.4-.41-2.38a28.09,28.09,0,0,0-5.66-11.47,39.1,39.1,0,0,0-7.07-6.93C94-2.4,80.19-.25,56.33,3.75,47.59,5.22,44.22,6.26,40.64,7.58c-7,2.59-13.07,7.16-19,12.14C11.73,30.82,6.06,44.44,2,61.23-.39,70.78,0,78.33.06,83.76c.1,11.82.38,41.29,13,46.13,5.73,2.2,13-1,17.38-5.41C42.59,112.32,33.67,89.82,41.76,86c4.62-2.2,12.9,2.55,14.35,8.44,2,8.29-11,12.65-16,29-3.19,10.54-3.21,26.69,5.46,32.68,4.7,3.25,12.61,4,17-.21,8.41-8.05-2.95-27.93,4.64-34,5.06-4,14.93.9,19.2,3.89,3,2.11,6.76,4.73,7.28,8.88.77,6.08-6.29,8.44-9.7,16.66-4,9.71-2.14,25.49,7.07,31.17,7,4.31,16.46,2.74,22.43-2.17,9.75-8,4.37-29.9,11.32-32,4.62-1.41,16.37,8,16.77,17.75.26,6.25-13.34,11-15.76,20.13a6.37,6.37,0,0,0-.2,2.38c.62,5.24,8.38,8.13,9.62,8.59a30.61,30.61,0,0,0,5.13,1.39l4,.63,1.61.26a60.62,60.62,0,0,0,7.41.52c1.17,0,2.71.06,4.53.06.48,0,5.68-.92,6.48-1.19,7.94-2.73,7.71-1.83,14.63-5.54,10.76-6.17,13.13-15.42,15.46-19.87,4.45-8.51,5.62-16.25,5.44-24.61C199.08,141.89,195.68,129.4,189,122.36Z" transform="translate(0)"/>
  <path d="M209.17,126" transform="translate(0)"/>
  <path d="M214.33,114.83" transform="translate(0)"/>
  <path d="M71.92,50.07" transform="translate(0)"/>
</svg>
