<svg id="leaf5" xmlns="http://www.w3.org/2000/svg" viewBox="0 0 200 200">
  <title>leaf5</title>
  <path d="M64.55,94.21c2.89-1.58.69-7.4-1.51-16.32,0,0-6.61-26.81-2.89-53.74.51-3.72.88-4.88,1.39-6C67.58,4.72,93.81-5,109.06,2.81c8.93,4.59,11.19,13.73,11.82,16.3C125.23,36.7,110.34,53.4,103,61.6,89.46,76.83,77.36,81.43,79.62,87.22c1.95,5,13.55,8.25,19.94,5.24,6.93-3.27,3.34-11.88,13.21-26.59,4-6,7-8.08,9.27-9.31,8.73-4.69,18.54-2.77,19.71-2.52,11.41,2.39,21.35,11.72,19.93,19.4a11.13,11.13,0,0,1-2.09,4.27c-4.79,7.33-10.52,7.48-17.38,14.36-3.22,3.23-6.71,6.73-6,11.06.72,4.56,5.88,8.82,9,8.15s2.24-5.45,5.57-11.25c4.54-7.94,15.05-12.77,21.32-13.39C183.47,85.5,200,114,183.93,115.78c-2.74.29-16.07,1.35-20.16,2.68a12.5,12.5,0,0,0-7.19,6.79,14.25,14.25,0,0,0,4.17,16.5c8.6,6.82,20.74-1.22,30.6,4.85,9,5.5,11.35,19.72,5.33,24.64-8.05,6.6-34.72-.53-40.1-12.22-1.53-3.33-1.53-7.44-4.87-8.54s-8.59,1-10,4.08c-2.14,4.86,7.29,8.28,10.19,18.82.65,2.35,3,10.9-2.78,15.52-4.74,3.79-14.1,4.28-18.77.78-4.92-3.68-2-9.78-1.63-30.08.29-17.15-.92-15.88-5.79-15.88-7.71,0-10.42,8.1-11.82,10.06-12.27,17.09-8.71,27.49-21.79,39.59C83.11,199.14,79,199.82,77.07,200c-9.24.69-19.87-8.71-20.86-16.51-.68-5.4-4.87-22.65,13.68-25.95,36.92-6.57,38.32-30.18,38.65-32.94,1.39-11.65-25.67-16.35-33.79-11.31-4.63,2.88-10.07,7-17.85,16.08-5.29,6.2-15.81,13-24.34,11.57-3.76-.66-9-9.53-7.88-14.68,1.85-8.82,16.6-10.13,16.46-15.33-.22-8-35.58-8.09-40.57-22.51-2.46-7.13,3.79-14.13,4.18-14.55C9,69.16,17.26,65.27,24.68,66.65c10.4,1.93,10,12.47,27.59,23.29C56.06,92.28,61.76,95.73,64.55,94.21Z" transform="translate(0 0)"/>
</svg>
