<svg id="leaf2" xmlns="http://www.w3.org/2000/svg" viewBox="0 0 200 200">
  <title>leaf2</title>
  <path d="M27.58,179.73C2.63,163.57,2.87,142.66.5,130.29c-1.93-10,2-20.06,7.79-27.88,6.17-8.28,12.65-2.54,14.29-2.41,2.33.19,6.83-4.12,10.71-1.27,4.75,3.48,6.92,8.67,8.34,12.18,4.26,10.5,2,16.71,6.19,19.82,2.35,1.76,6,2,7.86,0,4-4.12.15-17.53-3.33-25.49-7-15.95-14.53-14.91-25.49-31.15C19.34,62.93,10.14,43.51,15.19,35.85c2.87-4.34,10.34-5,14.77-1.7,3.41,2.52,4.47,7,5.24,9.63C40.41,61.92,49.88,60.33,58.3,80c6.66,15.59,4.1,24.49,10.72,28,4.75,2.56,11.57.91,14-3.68,3.26-6-1.76-15.64-4.53-21C71.73,70.37,65.8,68.93,52.35,54.54c-18.05-19.3-20-30.23-20.48-35.12-.3-3.1-.81-9.28,2.38-13.88,4.19-6,13.09-6.94,19.29-3.68,6.4,3.36,6.25,9.22,15.95,27.76,5.75,11,12.24,21.22,14.05,24.07C91.67,66.47,94.17,68.55,95.69,75.5c2.23,10.2-.92,15.89,2.38,19.26,4.06,4.15,15.05,1.89,17.39-4.53C119.62,78.77,97.29,50.94,92.36,33a12.75,12.75,0,0,1-.24-6.23c1.3-5.64,7.26-10.45,12.62-9.63,6.8,1,10.22,10.81,11.19,13.59,2.65,7.57.67,11.26,4,19,.84,1.91,4,9,6.67,8.5s4.23-9.64,6.91-27.76c1.2-8.13,1.44-11.35,3.81-15.3.74-1.24,5.58-7.32,12.38-6.51,5.86.7,10.3,5.68,11.19,11.9,1.54,10.72-7.22,20.85-9.76,23.79-5.37,6.2-9.31,6.94-11,13-1,3.57-1.16,9,1.43,12.17,3.66,4.43,11.44,2.42,16.2-.84,6.15-4.23,6.11-9.78,10.48-10.77,5.14-1.16,16.19,5.67,13.09,11.33-4.51,8.27-13.45,22.22-26.91,26.34-9.68,3-14.71.36-18.81,5.67-5,6.42-4.8,19.56,0,23.79,6.13,5.39,20.3-3.32,28.58-12.46,9.18-10.16,9.8-19.42,19.29-23.23,1.42-.57,8.05-3.23,12.38.57,5.87,5.14,3.85,18.89,3.1,24.07-4,27.23-28.63,62-63.59,77.61-26.09,11.64-49.07,8.66-72.16,5.66C45.37,195,31.63,182.35,27.58,179.73Z" transform="translate(0 0)"/>
</svg>
