<svg id="leaf3" xmlns="http://www.w3.org/2000/svg" viewBox="0 0 199.99 200">
  <title>leaf3</title>
  <path d="M172.59,172.12c0-.17,5-7.18,5.1-7.3,19.41-24.56,23.72-30,21.93-35.66-.66-1.07-1.35-2.12-2-3.17-.32-.33-.65-.66-1-1l-6.15-6.88c-.64-.65-1.29-1.29-1.91-2l-1.26-1.37a19.6,19.6,0,0,0-2.63-2.44,13.9,13.9,0,0,0-7.91-2.92c-1.95-.09-4.24-.18-6,.71a15.6,15.6,0,0,0-4.22,3.72c-9.2,13.8,1.43,39.07-6.59,43.51-6.43,3.57-24.3-6.58-25.5-18.39-1.5-14.87,24.64-20.59,26.1-40.87.86-11.94-7.14-24.66-13.2-24.52-12.65.3-14.53,56.67-28.79,57.51-7,.41-16.35-12.46-15.6-24.23,1-15.81,19.5-17.24,27.59-37.95C136.41,53.77,135,33,123.91,26c-7-4.45-17.62-3.35-18.9-3.21-3.44.39-7.88.9-11.4,3.8-6.38,5.26-5.88,15.23-5.7,19.27,1.69,37.46,3.16,70-2.7,72.1-5.11,1.85-23.65-16.58-25.8-39.12-1.58-16.6-2.64-26.47.3-47,1.16-8,4.15-12.26-3.9-19.26-7.65-6.67-21-18.69-39.89-8.76C13.59,5,3.89,11.21.62,28.3c-6.24,32.62,36,100.27,64.19,100.43,5.51,0,13.7-1.49,18.6,3.5,4.71,4.8,5.46,14.7.9,19.27-6.49,6.49-20.14-1.37-24.9,5-2.44,3.25-1.19,8.43.9,11.38,6,8.52,25.27,7.22,31.5-.87,3.79-4.92,1.59-10.83,5.1-12.26s10.08,2.29,10.8,6.71c1.22,7.52-15.78,11.06-16.8,22.48-.58,6.5,4.18,13.71,8.1,13.72,7.49,0,8.88-26.24,18.6-27.15,5.22-.49,11.11,6.51,12,12.85.06.41.1.82.12,1.24.23,5.81,3.39,12.5,9.35,12.94,19.58,1.43,15.41-3.5,28.12,1.22,11.7,4.35,15.6-2.66,8-16.62C173.14,178.26,171.5,176.33,172.59,172.12Z" transform="translate(0 0)"/>
</svg>
