<svg id="leaf4" xmlns="http://www.w3.org/2000/svg" viewBox="0 0 200 200">
  <title>leaf4</title>
  <path d="M26.33,189.22C-11.29,164.63,1.3,101,5.06,106.47c5.68,8.29,4.12-1,5.44-3.15,1.87-3,5.08-2.59,6.38-2.52,4.07.21,6.82,7.47,8.27,12,5.78,17.92,2.6,28.2,6.62,29.61,3.58,1.26,12.81-4.54,14.88-12.6,3.78-14.69-24.22-22.92-34.73-51.15C7,65.38,3.73,38.25,8.84,36.21c4.48-1.78,20.49,18.62,25.53,24.9a41,41,0,0,1,5,7.77c5.92,12.26.72,18,6.38,27.93,1.31,2.31,20.82,18.55,26.9,18.76,4.61.15,8-7.09,9.64-11.28,1.54-3.87-17.18-10.83-27.77-31.21C46,56.75,26.32,43,28.93,37.68c1.2-2.42,8.44-12.18,13.94-14.49,6-2.5,12,2.59,18,5.46S75.31,45.92,76.19,51.24c1.07,6.43-.45,8.88,1.89,15.12,1.27,3.36,5.78,20.6,9.37,22.38,3.9,1.92,9.93-5.81,12.55-8.47,3.1-3.14-3.11-16.12-9.16-29.24-5.72-12.42-8.58-18.63-13-24.79-4-5.55-6.46-7.8-6.15-11.76.48-6,7-10.81,12.53-12.81,6.48-2.36,16.32-2.62,20.08,1.89,1,1.21,1.34,2.47.24,14.7-.69,7.66-1,9.52-1.18,13.65-.36,9.57,1.7,16.44,4.38,17.65,2,.89,4.21-1.91,17.32-11.61C139.74,27.1,149.5,2.15,153.82,3c29.42,5.72,18.3,34,33,31.12,5.51-1.08,3.78,14.7-10.63,23.94-16.74,10.74-37.36,7.85-49.29,17.49-4.67,3.78-12.91,13.88-9.15,30.22,2.05,8.89,49.85-37.95,62.93-37,14.18,1,24.86,38.73,16.3,46.84-10.76,10.21-48.44,8.79-69.23,10.19-11.42.77-16.55-1.49-21.76,3-6.91,6-5.58,15.56.65,19.28,6.38,3.82,15.3.64,40.48-5.07a32.47,32.47,0,0,1,13-.42c2.22.4,8.06,1.45,11.34,5,5.41,5.92,1.29,15.94.24,18.48-10.85,26.36-109.32,34-114.85,33.88C30.58,199.39,47.36,203,26.33,189.22Z" transform="translate(0 0)"/>
</svg>
