<svg xmlns="http://www.w3.org/2000/svg">
	<!-- leaf1 -->
<symbol id="leaf1" viewBox="0 0 200 200">
  <title>leaf1</title>
  <path d="M123,68.92" transform="translate(0)"/>
  <path d="M189,122.36a7,7,0,0,1-.55-.67,7.13,7.13,0,0,0-2.84-1.32c-10.1-2-6.47,21-11.52,23.81-3.29,1.83-15.67,4.41-17.38-2.81-3.62-15.36,23.44-36.13,19.81-50.87-1.81-7.34-8.87-14.13-14.76-13.63-10.36.88-10.44,23.8-23.84,27.92-10.25,3.14-23.22-6.26-22.84-11.69.27-3.86,7.12-3.51,15.76-11.26,2.76-2.46,14.29-12.79,12.13-23.37-1.47-7.18-9.14-14-16.57-13.85-15,.28-22,28.68-30.52,26.4C91.58,69.86,88,61,89.86,54.57c3.25-11.37,22.3-11.11,26.07-25.1a18.42,18.42,0,0,0,.61-4.33c-.07-.57-.19-1.4-.41-2.38a28.09,28.09,0,0,0-5.66-11.47,39.1,39.1,0,0,0-7.07-6.93C94-2.4,80.19-.25,56.33,3.75,47.59,5.22,44.22,6.26,40.64,7.58c-7,2.59-13.07,7.16-19,12.14C11.73,30.82,6.06,44.44,2,61.23-.39,70.78,0,78.33.06,83.76c.1,11.82.38,41.29,13,46.13,5.73,2.2,13-1,17.38-5.41C42.59,112.32,33.67,89.82,41.76,86c4.62-2.2,12.9,2.55,14.35,8.44,2,8.29-11,12.65-16,29-3.19,10.54-3.21,26.69,5.46,32.68,4.7,3.25,12.61,4,17-.21,8.41-8.05-2.95-27.93,4.64-34,5.06-4,14.93.9,19.2,3.89,3,2.11,6.76,4.73,7.28,8.88.77,6.08-6.29,8.44-9.7,16.66-4,9.71-2.14,25.49,7.07,31.17,7,4.31,16.46,2.74,22.43-2.17,9.75-8,4.37-29.9,11.32-32,4.62-1.41,16.37,8,16.77,17.75.26,6.25-13.34,11-15.76,20.13a6.37,6.37,0,0,0-.2,2.38c.62,5.24,8.38,8.13,9.62,8.59a30.61,30.61,0,0,0,5.13,1.39l4,.63,1.61.26a60.62,60.62,0,0,0,7.41.52c1.17,0,2.71.06,4.53.06.48,0,5.68-.92,6.48-1.19,7.94-2.73,7.71-1.83,14.63-5.54,10.76-6.17,13.13-15.42,15.46-19.87,4.45-8.51,5.62-16.25,5.44-24.61C199.08,141.89,195.68,129.4,189,122.36Z" transform="translate(0)"/>
  <path d="M209.17,126" transform="translate(0)"/>
  <path d="M214.33,114.83" transform="translate(0)"/>
  <path d="M71.92,50.07" transform="translate(0)"/>
</symbol>


	<!-- leaf2 -->
<symbol id="leaf2" viewBox="0 0 200 200">
  <title>leaf2</title>
  <path d="M27.58,179.73C2.63,163.57,2.87,142.66.5,130.29c-1.93-10,2-20.06,7.79-27.88,6.17-8.28,12.65-2.54,14.29-2.41,2.33.19,6.83-4.12,10.71-1.27,4.75,3.48,6.92,8.67,8.34,12.18,4.26,10.5,2,16.71,6.19,19.82,2.35,1.76,6,2,7.86,0,4-4.12.15-17.53-3.33-25.49-7-15.95-14.53-14.91-25.49-31.15C19.34,62.93,10.14,43.51,15.19,35.85c2.87-4.34,10.34-5,14.77-1.7,3.41,2.52,4.47,7,5.24,9.63C40.41,61.92,49.88,60.33,58.3,80c6.66,15.59,4.1,24.49,10.72,28,4.75,2.56,11.57.91,14-3.68,3.26-6-1.76-15.64-4.53-21C71.73,70.37,65.8,68.93,52.35,54.54c-18.05-19.3-20-30.23-20.48-35.12-.3-3.1-.81-9.28,2.38-13.88,4.19-6,13.09-6.94,19.29-3.68,6.4,3.36,6.25,9.22,15.95,27.76,5.75,11,12.24,21.22,14.05,24.07C91.67,66.47,94.17,68.55,95.69,75.5c2.23,10.2-.92,15.89,2.38,19.26,4.06,4.15,15.05,1.89,17.39-4.53C119.62,78.77,97.29,50.94,92.36,33a12.75,12.75,0,0,1-.24-6.23c1.3-5.64,7.26-10.45,12.62-9.63,6.8,1,10.22,10.81,11.19,13.59,2.65,7.57.67,11.26,4,19,.84,1.91,4,9,6.67,8.5s4.23-9.64,6.91-27.76c1.2-8.13,1.44-11.35,3.81-15.3.74-1.24,5.58-7.32,12.38-6.51,5.86.7,10.3,5.68,11.19,11.9,1.54,10.72-7.22,20.85-9.76,23.79-5.37,6.2-9.31,6.94-11,13-1,3.57-1.16,9,1.43,12.17,3.66,4.43,11.44,2.42,16.2-.84,6.15-4.23,6.11-9.78,10.48-10.77,5.14-1.16,16.19,5.67,13.09,11.33-4.51,8.27-13.45,22.22-26.91,26.34-9.68,3-14.71.36-18.81,5.67-5,6.42-4.8,19.56,0,23.79,6.13,5.39,20.3-3.32,28.58-12.46,9.18-10.16,9.8-19.42,19.29-23.23,1.42-.57,8.05-3.23,12.38.57,5.87,5.14,3.85,18.89,3.1,24.07-4,27.23-28.63,62-63.59,77.61-26.09,11.64-49.07,8.66-72.16,5.66C45.37,195,31.63,182.35,27.58,179.73Z" transform="translate(0 0)"/>
</symbol>

	<!-- leaf3 -->
<symbol id="leaf3" viewBox="0 0 199.99 200">
  <title>leaf3</title>
  <path d="M172.59,172.12c0-.17,5-7.18,5.1-7.3,19.41-24.56,23.72-30,21.93-35.66-.66-1.07-1.35-2.12-2-3.17-.32-.33-.65-.66-1-1l-6.15-6.88c-.64-.65-1.29-1.29-1.91-2l-1.26-1.37a19.6,19.6,0,0,0-2.63-2.44,13.9,13.9,0,0,0-7.91-2.92c-1.95-.09-4.24-.18-6,.71a15.6,15.6,0,0,0-4.22,3.72c-9.2,13.8,1.43,39.07-6.59,43.51-6.43,3.57-24.3-6.58-25.5-18.39-1.5-14.87,24.64-20.59,26.1-40.87.86-11.94-7.14-24.66-13.2-24.52-12.65.3-14.53,56.67-28.79,57.51-7,.41-16.35-12.46-15.6-24.23,1-15.81,19.5-17.24,27.59-37.95C136.41,53.77,135,33,123.91,26c-7-4.45-17.62-3.35-18.9-3.21-3.44.39-7.88.9-11.4,3.8-6.38,5.26-5.88,15.23-5.7,19.27,1.69,37.46,3.16,70-2.7,72.1-5.11,1.85-23.65-16.58-25.8-39.12-1.58-16.6-2.64-26.47.3-47,1.16-8,4.15-12.26-3.9-19.26-7.65-6.67-21-18.69-39.89-8.76C13.59,5,3.89,11.21.62,28.3c-6.24,32.62,36,100.27,64.19,100.43,5.51,0,13.7-1.49,18.6,3.5,4.71,4.8,5.46,14.7.9,19.27-6.49,6.49-20.14-1.37-24.9,5-2.44,3.25-1.19,8.43.9,11.38,6,8.52,25.27,7.22,31.5-.87,3.79-4.92,1.59-10.83,5.1-12.26s10.08,2.29,10.8,6.71c1.22,7.52-15.78,11.06-16.8,22.48-.58,6.5,4.18,13.71,8.1,13.72,7.49,0,8.88-26.24,18.6-27.15,5.22-.49,11.11,6.51,12,12.85.06.41.1.82.12,1.24.23,5.81,3.39,12.5,9.35,12.94,19.58,1.43,15.41-3.5,28.12,1.22,11.7,4.35,15.6-2.66,8-16.62C173.14,178.26,171.5,176.33,172.59,172.12Z" transform="translate(0 0)"/>
</symbol>

	<!-- leaf4 -->
<symbol id="leaf4" viewBox="0 0 200 200">
  <title>leaf4</title>
  <path d="M26.33,189.22C-11.29,164.63,1.3,101,5.06,106.47c5.68,8.29,4.12-1,5.44-3.15,1.87-3,5.08-2.59,6.38-2.52,4.07.21,6.82,7.47,8.27,12,5.78,17.92,2.6,28.2,6.62,29.61,3.58,1.26,12.81-4.54,14.88-12.6,3.78-14.69-24.22-22.92-34.73-51.15C7,65.38,3.73,38.25,8.84,36.21c4.48-1.78,20.49,18.62,25.53,24.9a41,41,0,0,1,5,7.77c5.92,12.26.72,18,6.38,27.93,1.31,2.31,20.82,18.55,26.9,18.76,4.61.15,8-7.09,9.64-11.28,1.54-3.87-17.18-10.83-27.77-31.21C46,56.75,26.32,43,28.93,37.68c1.2-2.42,8.44-12.18,13.94-14.49,6-2.5,12,2.59,18,5.46S75.31,45.92,76.19,51.24c1.07,6.43-.45,8.88,1.89,15.12,1.27,3.36,5.78,20.6,9.37,22.38,3.9,1.92,9.93-5.81,12.55-8.47,3.1-3.14-3.11-16.12-9.16-29.24-5.72-12.42-8.58-18.63-13-24.79-4-5.55-6.46-7.8-6.15-11.76.48-6,7-10.81,12.53-12.81,6.48-2.36,16.32-2.62,20.08,1.89,1,1.21,1.34,2.47.24,14.7-.69,7.66-1,9.52-1.18,13.65-.36,9.57,1.7,16.44,4.38,17.65,2,.89,4.21-1.91,17.32-11.61C139.74,27.1,149.5,2.15,153.82,3c29.42,5.72,18.3,34,33,31.12,5.51-1.08,3.78,14.7-10.63,23.94-16.74,10.74-37.36,7.85-49.29,17.49-4.67,3.78-12.91,13.88-9.15,30.22,2.05,8.89,49.85-37.95,62.93-37,14.18,1,24.86,38.73,16.3,46.84-10.76,10.21-48.44,8.79-69.23,10.19-11.42.77-16.55-1.49-21.76,3-6.91,6-5.58,15.56.65,19.28,6.38,3.82,15.3.64,40.48-5.07a32.47,32.47,0,0,1,13-.42c2.22.4,8.06,1.45,11.34,5,5.41,5.92,1.29,15.94.24,18.48-10.85,26.36-109.32,34-114.85,33.88C30.58,199.39,47.36,203,26.33,189.22Z" transform="translate(0 0)"/>
</symbol>

	<!-- leaf5 -->
<symbol id="leaf5" viewBox="0 0 200 200">
  <title>leaf5</title>
  <path d="M64.55,94.21c2.89-1.58.69-7.4-1.51-16.32,0,0-6.61-26.81-2.89-53.74.51-3.72.88-4.88,1.39-6C67.58,4.72,93.81-5,109.06,2.81c8.93,4.59,11.19,13.73,11.82,16.3C125.23,36.7,110.34,53.4,103,61.6,89.46,76.83,77.36,81.43,79.62,87.22c1.95,5,13.55,8.25,19.94,5.24,6.93-3.27,3.34-11.88,13.21-26.59,4-6,7-8.08,9.27-9.31,8.73-4.69,18.54-2.77,19.71-2.52,11.41,2.39,21.35,11.72,19.93,19.4a11.13,11.13,0,0,1-2.09,4.27c-4.79,7.33-10.52,7.48-17.38,14.36-3.22,3.23-6.71,6.73-6,11.06.72,4.56,5.88,8.82,9,8.15s2.24-5.45,5.57-11.25c4.54-7.94,15.05-12.77,21.32-13.39C183.47,85.5,200,114,183.93,115.78c-2.74.29-16.07,1.35-20.16,2.68a12.5,12.5,0,0,0-7.19,6.79,14.25,14.25,0,0,0,4.17,16.5c8.6,6.82,20.74-1.22,30.6,4.85,9,5.5,11.35,19.72,5.33,24.64-8.05,6.6-34.72-.53-40.1-12.22-1.53-3.33-1.53-7.44-4.87-8.54s-8.59,1-10,4.08c-2.14,4.86,7.29,8.28,10.19,18.82.65,2.35,3,10.9-2.78,15.52-4.74,3.79-14.1,4.28-18.77.78-4.92-3.68-2-9.78-1.63-30.08.29-17.15-.92-15.88-5.79-15.88-7.71,0-10.42,8.1-11.82,10.06-12.27,17.09-8.71,27.49-21.79,39.59C83.11,199.14,79,199.82,77.07,200c-9.24.69-19.87-8.71-20.86-16.51-.68-5.4-4.87-22.65,13.68-25.95,36.92-6.57,38.32-30.18,38.65-32.94,1.39-11.65-25.67-16.35-33.79-11.31-4.63,2.88-10.07,7-17.85,16.08-5.29,6.2-15.81,13-24.34,11.57-3.76-.66-9-9.53-7.88-14.68,1.85-8.82,16.6-10.13,16.46-15.33-.22-8-35.58-8.09-40.57-22.51-2.46-7.13,3.79-14.13,4.18-14.55C9,69.16,17.26,65.27,24.68,66.65c10.4,1.93,10,12.47,27.59,23.29C56.06,92.28,61.76,95.73,64.55,94.21Z" transform="translate(0 0)"/>
</symbol>

</svg>

